<?xml version="1.0" encoding="utf-8"?>
<!-- Generator: Adobe Illustrator 24.0.1, SVG Export Plug-In . SVG Version: 6.00 Build 0)  -->
<svg version="1.1" id="Layer_1" xmlns="http://www.w3.org/2000/svg" xmlns:xlink="http://www.w3.org/1999/xlink" x="0px" y="0px"
	 viewBox="0 0 300 47" style="enable-background:new 0 0 300 47;" xml:space="preserve">
<g>
	<g>
		<path d="M32.5,14.2h-9.1l0.9-3.2C24.8,9,25,7.7,25,7.2c0-0.5-0.4-0.8-1-0.8c-0.6,0-1,0.2-1.3,0.7c-0.3,0.4-0.7,1.5-1.2,3.3
			l-4.5,16.8c-0.4,1.6-0.6,2.6-0.5,3.1c0.1,0.5,0.4,0.8,1,0.8c0.7,0,1.2-0.3,1.6-0.8c0.4-0.6,0.8-1.6,1.2-3.2l1.1-4.1h-1.8l1.4-5.4
			h10.7l-5,18.8h-5.8l-0.2-2.5c-0.9,1.1-1.9,1.9-3,2.4c-1.1,0.5-2.3,0.8-3.6,0.8c-1.5,0-2.9-0.4-4-1.1c-1.1-0.7-1.9-1.7-2.3-2.8
			c-0.4-1.1-0.5-2.2-0.4-3.5s0.6-3,1.2-5.4l2.8-10.4c0.9-3.4,1.7-5.8,2.5-7.3s2.2-2.9,4.2-4.2s4.4-1.9,7.1-1.9
			c2.7,0,4.7,0.6,6.2,1.6c1.5,1.1,2.3,2.4,2.4,3.9s-0.2,3.7-1,6.6L32.5,14.2z"/>
		<path d="M51.7,22.4H40.3l-1.7,6.2c-0.3,1.3-0.5,2.1-0.4,2.5c0.1,0.4,0.4,0.6,0.9,0.6c0.7,0,1.2-0.2,1.5-0.8
			c0.4-0.5,0.7-1.5,1.1-2.9l1-3.8h8.3l-0.6,2.1c-0.5,1.8-1,3.1-1.4,4.1c-0.5,1-1.3,2-2.4,3.1c-1.1,1.1-2.4,1.9-3.8,2.4
			c-1.4,0.5-3.1,0.8-5,0.8c-1.8,0-3.4-0.3-4.7-0.8c-1.3-0.5-2.2-1.3-2.7-2.2c-0.5-0.9-0.8-2-0.8-3.1s0.3-2.8,0.9-4.9l2.3-8.4
			c0.7-2.5,1.5-4.5,2.6-6c1.1-1.4,2.5-2.6,4.2-3.3C41.5,7.4,43.4,7,45.4,7c2.5,0,4.4,0.5,5.7,1.4c1.3,0.9,2.1,2.2,2.4,3.7
			s0,3.7-0.8,6.5L51.7,22.4z M44.1,17.7l0.6-2.1c0.4-1.5,0.6-2.4,0.5-2.9c0-0.4-0.3-0.6-0.8-0.6c-0.6,0-1,0.2-1.3,0.6
			c-0.2,0.4-0.6,1.4-1,3l-0.6,2.1H44.1z"/>
		<path d="M65.7,7.5l-0.8,2.6c0.9-1.1,1.9-1.9,3-2.4S70,7,71.2,7c1.5,0,2.6,0.4,3.4,1.1c0.8,0.7,1.1,1.6,1.1,2.7
			c0,1.1-0.4,2.9-1,5.4l-5.4,20.2h-8.8l5.3-19.9c0.5-2,0.8-3.2,0.8-3.6c0-0.4-0.3-0.6-0.9-0.6c-0.6,0-1.1,0.2-1.3,0.8
			c-0.3,0.5-0.7,1.8-1.3,4l-5.2,19.5H49l7.7-28.8C56.7,7.5,65.7,7.5,65.7,7.5z"/>
		<path d="M94.1,22.4H82.7l-1.7,6.2c-0.3,1.3-0.5,2.1-0.4,2.5c0.1,0.4,0.4,0.6,0.9,0.6c0.7,0,1.2-0.2,1.5-0.8
			c0.4-0.5,0.7-1.5,1.1-2.9l1-3.8h8.3L93,26.4c-0.5,1.8-1,3.1-1.4,4.1c-0.5,1-1.3,2-2.4,3.1s-2.4,1.9-3.8,2.4
			c-1.4,0.5-3.1,0.8-5,0.8c-1.8,0-3.4-0.3-4.7-0.8c-1.3-0.5-2.2-1.3-2.7-2.2s-0.8-2-0.8-3.1s0.3-2.8,0.9-4.9l2.2-8.4
			c0.7-2.5,1.5-4.5,2.6-6c1.1-1.4,2.5-2.6,4.2-3.3C83.9,7.4,85.8,7,87.8,7c2.5,0,4.4,0.5,5.7,1.4s2.1,2.2,2.4,3.7s0,3.7-0.8,6.5
			L94.1,22.4z M86.5,17.7l0.6-2.1c0.4-1.5,0.6-2.4,0.5-2.9c0-0.4-0.3-0.6-0.8-0.6c-0.6,0-1,0.2-1.3,0.6c-0.2,0.4-0.6,1.4-1,3
			L84,17.7H86.5z"/>
		<path d="M107.9,7.5l-1.5,4.4c2-2.7,4.2-4.2,6.7-4.3l-2.7,10.1c-1.6,0-2.8,0.2-3.7,0.6c-0.9,0.4-1.5,1-1.9,1.8
			c-0.4,0.8-0.8,1.9-1.5,4.7l-3,11.4h-8.8l7.7-28.8C99.1,7.5,107.9,7.5,107.9,7.5z"/>
		<path d="M119.3,17.7H111l0.1-0.4c0.6-2.2,1.5-4.6,2.3-5.8c0.8-1.2,2.2-2.3,3.9-3.2c1.8-0.9,3.9-1.4,6.4-1.4c3,0,5.1,0.5,6.3,1.6
			c1.2,1.1,1.8,2.3,1.7,3.9c-0.1,1.5-0.8,4.7-2.1,9.4l-3.9,14.5h-8.5l0.7-2.6c-0.8,1-1.7,1.8-2.7,2.3c-1,0.5-2.1,0.8-3.2,0.8
			c-1.5,0-2.8-0.4-3.9-1.3c-1.1-0.9-1.2-2.8-0.4-5.6l0.6-2.4c0.6-2.1,1.3-3.6,2.2-4.4c0.9-0.8,2.8-1.7,5.8-2.7
			c3.2-1.1,4.9-1.9,5.2-2.3c0.3-0.4,0.6-1.2,0.9-2.4c0.4-1.5,0.6-2.5,0.5-2.9c-0.1-0.4-0.4-0.7-0.9-0.7c-0.6,0-1,0.2-1.2,0.6
			c-0.2,0.4-0.6,1.4-1,3L119.3,17.7z M120.7,22.6c-1.7,1-2.7,1.9-3.1,2.6s-0.8,1.7-1.1,3c-0.4,1.5-0.6,2.5-0.5,2.9
			c0.1,0.4,0.4,0.6,1,0.6c0.5,0,0.9-0.2,1.2-0.5c0.2-0.3,0.6-1.2,1-2.7L120.7,22.6z"/>
		<path d="M146.3,1.2l-9.4,35.1h-9l9.4-35.1C137.3,1.2,146.3,1.2,146.3,1.2z"/>
		<path d="M153.6,1.2h9.2c2.5,0,4.3,0.2,5.6,0.6c1.2,0.4,2.1,1,2.6,1.7c0.5,0.7,0.7,1.6,0.6,2.7c0,1.1-0.4,2.7-0.9,4.9l-0.8,3.1
			c-0.6,2.2-1.3,3.9-2,4.9c-0.7,1-1.8,1.8-3.2,2.4c-1.4,0.5-3.1,0.8-5.1,0.8h-2.4l-3.8,14.1h-9.1L153.6,1.2z M161.1,7.3l-2.4,8.9
			c0.2,0,0.5,0,0.7,0c0.8,0,1.5-0.2,1.9-0.6s0.8-1.3,1.2-2.6l0.8-2.9c0.3-1.2,0.3-2,0.1-2.3C163,7.5,162.3,7.3,161.1,7.3z"/>
		<path d="M177,18.7h-8.2l0.5-1.9c0.6-2.2,1.3-3.9,2.1-5.1c0.8-1.2,2.1-2.3,3.9-3.2s3.9-1.4,6.4-1.4c3,0,5.1,0.5,6.3,1.6
			c1.2,1.1,1.8,2.3,1.7,3.9c-0.1,1.5-0.8,4.7-2.1,9.4l-3.9,14.4h-8.5l0.7-2.6c-0.8,1-1.7,1.8-2.7,2.3c-1,0.5-2.1,0.8-3.2,0.8
			c-1.5,0-2.8-0.4-3.9-1.3c-1.1-0.9-1.2-2.8-0.4-5.6l0.6-2.4c0.6-2.1,1.3-3.6,2.2-4.4c0.9-0.8,2.8-1.7,5.8-2.7
			c3.2-1.1,4.9-1.9,5.2-2.3c0.3-0.4,0.6-1.2,0.9-2.4c0.4-1.5,0.6-2.5,0.4-2.9s-0.4-0.7-0.9-0.7c-0.6,0-1,0.2-1.2,0.6
			c-0.2,0.4-0.6,1.4-1,3L177,18.7z M178.7,22.6c-1.7,1-2.7,1.9-3.1,2.6s-0.8,1.7-1.1,3c-0.4,1.5-0.6,2.5-0.5,2.9
			c0.1,0.4,0.4,0.6,1,0.6c0.5,0,0.9-0.2,1.2-0.5s0.6-1.2,1-2.7L178.7,22.6z"/>
		<path d="M201.7,7.5l-0.8,2.6c0.9-1.1,1.9-1.9,3-2.4c1.1-0.5,2.2-0.8,3.4-0.8c1.5,0,2.6,0.4,3.4,1.1c0.8,0.7,1.1,1.6,1.1,2.7
			s-0.4,2.9-1,5.4l-5.4,20.2h-8.8l5.3-19.9c0.5-2,0.8-3.2,0.8-3.6c0-0.4-0.3-0.6-0.9-0.6c-0.6,0-1.1,0.2-1.3,0.8s-0.7,1.8-1.3,4
			l-5.2,19.5h-8.8l7.7-28.8C192.8,7.5,201.7,7.5,201.7,7.5z"/>
		<path d="M214.5,8.2l1.2-4.5h8.8l-1.2,4.5h2.4l-1.2,4.6h-2.4l-4.1,15.4c-0.5,1.9-0.7,3-0.6,3.2c0.1,0.2,0.9,0.3,2.4,0.3l-1.2,4.6
			H215c-2,0-3.4-0.1-4.2-0.2c-0.8-0.2-1.5-0.5-1.9-1.2c-0.5-0.6-0.7-1.3-0.7-2.1s0.5-2.6,1.2-5.5l3.9-14.6"/>
		<path d="M242.3,16.7h-7.8l0.4-1.6c0.4-1.3,0.5-2.2,0.4-2.5c-0.1-0.4-0.4-0.5-1-0.5c-0.5,0-0.9,0.2-1.2,0.5s-0.6,0.8-0.8,1.5
			c-0.2,0.9-0.4,1.5-0.3,1.9c0,0.4,0.3,0.9,0.7,1.4c0.5,0.5,1.6,1.2,3.2,2.1c2.2,1.2,3.6,2.4,4.1,3.5c0.5,1.1,0.5,2.7-0.1,4.8
			c-0.6,2.4-1.4,4.1-2.3,5.3c-0.9,1.2-2.2,2.1-3.8,2.8c-1.6,0.7-3.4,1-5.4,1c-2.2,0-4-0.3-5.4-1c-1.4-0.7-2.2-1.6-2.5-2.8
			s-0.1-3,0.6-5.4l0.4-1.4h7.7l-0.5,1.8c-0.4,1.5-0.6,2.5-0.5,3s0.4,0.7,1,0.7c0.6,0,1.1-0.2,1.4-0.5c0.3-0.3,0.6-1,0.9-2
			c0.4-1.4,0.4-2.2,0.2-2.6c-0.2-0.4-1.6-1.4-4.2-3.1c-2.2-1.5-3.4-2.8-3.6-3.9s-0.1-2.6,0.3-4.2c0.6-2.3,1.4-4,2.3-5.1
			c0.9-1.1,2.1-1.9,3.8-2.5c1.6-0.6,3.4-0.9,5.3-0.9c1.9,0,3.5,0.2,4.7,0.7c1.2,0.5,2.1,1.1,2.6,1.9c0.5,0.8,0.7,1.5,0.7,2.2
			s-0.2,1.8-0.6,3.2L242.3,16.7z"/>
		<path d="M271.3,16.5h-9.1l1.6-6.1c0.5-1.8,0.7-2.9,0.6-3.3c-0.1-0.4-0.5-0.7-1.1-0.7c-0.8,0-1.3,0.3-1.7,0.8s-0.8,1.7-1.2,3.5
			L256,27c-0.4,1.7-0.6,2.8-0.6,3.3c0.1,0.5,0.5,0.8,1.2,0.8c0.7,0,1.2-0.3,1.6-0.8s0.8-1.7,1.3-3.7l1.2-4.4h9.1l-0.4,1.4
			c-1,3.6-1.9,6.2-2.8,7.7c-0.9,1.5-2.4,2.8-4.5,4c-2.1,1.2-4.4,1.7-7,1.7c-2.7,0-4.8-0.5-6.2-1.5c-1.5-1-2.3-2.3-2.4-4
			c-0.1-1.7,0.3-4.3,1.2-7.7l2.8-10.2c0.7-2.5,1.3-4.4,1.8-5.7c0.5-1.3,1.4-2.5,2.5-3.7s2.6-2.1,4.3-2.8c1.7-0.7,3.5-1,5.5-1
			c2.7,0,4.8,0.5,6.2,1.6s2.3,2.3,2.4,3.9c0.1,1.6-0.2,4-1.1,7.2L271.3,16.5z"/>
		<path d="M292,17.6l-1.9,7c-0.7,2.6-1.3,4.5-1.9,5.7c-0.6,1.2-1.4,2.3-2.6,3.4c-1.1,1-2.4,1.8-3.9,2.3s-3.1,0.8-4.8,0.8
			c-1.9,0-3.5-0.2-4.7-0.6c-1.2-0.4-2.1-1.1-2.6-1.9c-0.5-0.9-0.8-1.9-0.8-3.1c0-1.2,0.3-3.1,1-5.5l2-7.4c0.7-2.7,1.6-4.8,2.5-6.3
			c1-1.5,2.3-2.7,4.1-3.6s3.8-1.4,6.1-1.4c2,0,3.6,0.3,4.8,0.9s2.1,1.4,2.6,2.3c0.5,0.9,0.8,1.9,0.8,2.9
			C292.8,14.1,292.6,15.6,292,17.6z M283.8,15.5c0.4-1.5,0.6-2.4,0.5-2.8c0-0.4-0.3-0.6-0.8-0.6c-0.5,0-0.9,0.2-1.2,0.6
			c-0.3,0.4-0.6,1.3-1,2.8l-3.5,13c-0.4,1.4-0.5,2.2-0.5,2.7c0,0.4,0.3,0.6,0.8,0.6c0.5,0,0.9-0.2,1.1-0.6c0.3-0.4,0.6-1.2,0.9-2.4
			L283.8,15.5z"/>
		<path d="M296,29.1l-1.9,7.2h-6.6l1.9-7.2H296z"/>
	</g>
	<path d="M294.1,38.5l-2.1,8H4l2.1-8H294.1z"/>
</g>
</svg>
